<svg xmlns="http://www.w3.org/2000/svg" viewBox="0 0 841.9 595.3">
    <g fill="#61DAFB">
        <path d="M666.3 296.5c0-32.5-40.7-63.3-103.1-82.4 14.4-63.6 8-114.2-20.2-130.4-6.5-3.8-14.1-5.6-22.4-5.6v22.3c4.6 0 8.3.9 11.4 2.6 13.6 7.8 19.5 37.5 14.9 75.7-1.1 9.4-2.9 19.3-5.1 29.4-19.6-4.8-41-8.5-63.5-10.9-13.5-18.5-27.5-35.3-41.6-50 32.6-30.3 63.2-46.9 84-46.9V78c-27.5 0-63.5 19.6-99.9 53.6-36.4-33.8-72.4-53.2-99.9-53.2v22.3c20.7 0 51.4 16.5 84 46.6-14 14.7-28 31.4-41.3 49.9-22.6 2.4-44 6.1-63.6 11-2.3-10-4-19.7-5.2-29-4.7-38.2 1.1-67.9 14.6-75.8 3-1.8 6.9-2.6 11.5-2.6V78.5c-8.4 0-16 1.8-22.6 5.6-28.1 16.2-34.4 66.7-19.9 130.1-62.2 19.2-102.7 49.9-102.7 82.3 0 32.5 40.7 63.3 103.1 82.4-14.4 63.6-8 114.2 20.2 130.4 6.5 3.8 14.1 5.6 22.5 5.6 27.5 0 63.5-19.6 99.9-53.6 36.4 33.8 72.4 53.2 99.9 53.2 8.4 0 16-1.8 22.6-5.6 28.1-16.2 34.4-66.7 19.9-130.1 62-19.1 102.5-49.9 102.5-82.3zm-130.2-66.7c-3.7 12.9-8.3 26.2-13.5 39.5-4.1-8-8.4-16-13.1-24-4.6-8-9.5-15.8-14.4-23.4 14.2 2.1 27.9 4.7 41 7.9zm-45.8 106.5c-7.8 13.5-15.8 26.3-24.1 38.2-14.9 1.3-30 2-45.2 2-15.1 0-30.2-.7-45-1.9-8.3-11.9-16.4-24.6-24.2-38-7.6-13.1-14.5-26.4-20.8-39.8 6.2-13.4 13.2-26.8 20.7-39.9 7.8-13.5 15.8-26.3 24.1-38.2 14.9-1.3 30-2 45.2-2 15.1 0 30.2.7 45 1.9 8.3 11.9 16.4 24.6 24.2 38 7.6 13.1 14.5 26.4 20.8 39.8-6.3 13.4-13.2 26.8-20.7 39.9zm32.3-13c5.4 13.4 10 26.8 13.8 39.8-13.1 3.2-26.9 5.9-41.2 8 4.9-7.7 9.8-15.6 14.4-23.7 4.6-8 8.9-16.1 13-24.1zM421.2 430c-9.3-9.6-18.6-20.3-27.8-32 9 .4 18.2.7 27.5.7 9.4 0 18.7-.2 27.8-.7-9 11.7-18.3 22.4-27.5 32zm-74.4-58.9c-14.2-2.1-27.9-4.7-41-7.9 3.7-12.9 8.3-26.2 13.5-39.5 4.1 8 8.4 16 13.1 24 4.7 8 9.5 15.8 14.4 23.4zM420.7 163c9.3 9.6 18.6 20.3 27.8 32-9-.4-18.2-.7-27.5-.7-9.4 0-18.7.2-27.8.7 9-11.7 18.3-22.4 27.5-32zm-74 58.9c-4.9 7.7-9.8 15.6-14.4 23.7-4.6 8-8.9 16-13 24-5.4-13.4-10-26.8-13.8-39.8 13.1-3.1 26.9-5.8 41.2-7.9zm-90.5 125.2c-35.4-15.1-58.3-34.9-58.3-50.6 0-15.7 22.9-35.6 58.3-50.6 8.6-3.7 18-7 27.7-10.1 5.7 19.6 13.2 40 22.5 60.9-9.2 20.8-16.6 41.1-22.2 60.6-9.9-3.1-19.3-6.5-28-10.2zM310 490c-13.6-7.8-19.5-37.5-14.9-75.7 1.1-9.4 2.9-19.3 5.1-29.4 19.6 4.8 41 8.5 63.5 10.9 13.5 18.5 27.5 35.3 41.6 50-32.6 30.3-63.2 46.9-84 46.9-4.5-.1-8.3-1-11.3-2.7zm237.2-76.2c4.7 38.2-1.1 67.9-14.6 75.8-3 1.8-6.9 2.6-11.5 2.6-20.7 0-51.4-16.5-84-46.6 14-14.7 28-31.4 41.3-49.9 22.6-2.4 44-6.1 63.6-11 2.3 10.1 4.1 19.8 5.2 29.1zm38.5-66.7c-8.6 3.7-18 7-27.7 10.1-5.7-19.6-13.2-40-22.5-60.9 9.2-20.8 16.6-41.1 22.2-60.6 9.9 3.1 19.3 6.5 28.1 10.2 35.4 15.1 58.3 34.9 58.3 50.6-.1 15.7-23 35.6-58.4 50.6zM320.8 78.4z"/>
        <circle cx="420.9" cy="296.5" r="45.7"/>
        <path d="M520.5 78.1z"/>
    </g>
</svg>
 <svg version="1.1" id="logo" class="weirdly-logo-svg" xmlns="http://www.w3.org/2000/svg" xmlns:xlink="http://www.w3.org/1999/xlink" x="0px" y="0px"
                 width="83px" height="32.8px" viewBox="0 0 83 32.8" style="enable-background:new 0 0 83 32.8;" xml:space="preserve">
                <style type="text/css">
                    .st0{fill:#00C7A5;}
                </style>
                <g>
                    <path class="st0" d="M9.1,12.1c0.1-0.8,0.5-1.4,1.1-1.8c0.6-0.4,1.3-0.7,2-0.8c0.7-0.1,1-0.1,1.6,0.1c0.5,0.2,0.8,0.5,0.7,0.9
            c-0.4,1.3-0.6,2.8-0.6,4.3c0,1.5,0.1,2.9,0.3,4.1c0.2,1.3,0.6,2.4,0.9,3.2c0.4,0.9,0.9,1.2,1.5,1.2c0.4,0,0.8-0.6,1.1-1.7
            c0.3-1.2,0.6-2.5,0.8-4c0.2-1.5,0.4-3,0.5-4.4c0.1-1.4,0.2-2.3,0.2-2.9c0-0.5,0.2-0.8,0.5-1.1c0.4-0.3,0.7-0.4,1.1-0.4
            c0.4,0,0.7,0.1,1.1,0.4c0.3,0.3,0.5,0.6,0.4,1.1c0,0.3-0.1,0.9-0.2,1.8c-0.1,0.9-0.2,2-0.4,3.3c-0.2,1.2-0.4,2.5-0.8,3.9
            c-0.3,1.4-0.8,2.6-1.3,3.8c-0.5,1.1-1.2,2.1-1.9,2.9c-0.8,0.8-1.7,1.2-2.7,1.2c-1,0.1-1.9-0.1-2.6-0.6c-0.7-0.5-1.4-1.2-1.9-2.1
            c-0.7,1.3-1.4,2.4-2.3,3.3c-0.9,0.8-1.8,1.3-2.9,1.4c-1.3,0-2.4-0.5-3.2-1.8c-0.8-1.2-1.4-2.8-1.8-4.6C0.3,21.1,0.1,19,0,16.8
            c0-2.2,0-4.2,0.3-6.1C0.4,10,0.8,9.4,1.4,8.9c0.7-0.4,1.3-0.7,2.1-0.8c0.7-0.1,0.8,0,1.3,0.1c0.5,0.2,0.7,0.5,0.6,0.9
            c-0.3,1.3-0.5,2.8-0.6,4.7c-0.1,1.8-0.1,3.6,0,5.3c0.1,1.7,0.3,3.2,0.6,4.4c0.3,1.2,0.9,1.8,1.6,1.8c0.4,0,0.8-0.5,1.1-1.4
            c0.4-0.9,0.8-2.1,1.1-3.4C8.8,18,8.7,15.2,9.1,12.1z"/>
                    <path class="st0" d="M31.4,15.2c-0.3,0.4-0.6,0.7-1,0.9c-0.4,0.2-0.8,0.4-1.3,0.6c-0.5,0.2-1,0.3-1.4,0.3c-0.5,0.1-0.9,0.1-1.3,0.2
            c-0.1,0.7-0.2,1.4-0.2,2.1c0,0.7,0,1.3,0.1,1.8c0.1,0.5,0.2,1,0.4,1.4c0.2,0.4,0.4,0.6,0.8,0.7c0.4,0.1,0.9,0.1,1.4-0.2
            c0.5-0.3,1-0.7,1.5-1.2c0.5-0.5,0.9-1.1,1.4-1.8c0.4-0.7,0.8-1.3,1.2-2c0.3-0.6,0.6-1.2,0.9-1.7c0.2-0.5,0.4-0.9,0.5-1.1
            c0.1-0.3,0.3-0.5,0.5-0.6c0.2-0.1,0.4-0.1,0.6-0.1c0.2,0,0.4,0.1,0.5,0.3c0.1,0.2,0.2,0.4,0.1,0.7c-0.1,0.2-0.2,0.6-0.4,1.2
            c-0.2,0.6-0.4,1.3-0.7,2c-0.3,0.7-0.7,1.5-1.2,2.3c-0.5,0.8-1,1.5-1.7,2.2c-0.6,0.7-1.4,1.2-2.2,1.7c-0.8,0.4-1.8,0.7-2.8,0.7
            c-1.2,0-2.2-0.4-2.8-1.3c-0.7-0.8-1.1-1.9-1.4-3.2c-0.2-1.3-0.3-2.7-0.1-4.1c0.2-1.5,0.5-2.9,0.9-4.1c0.5-1.3,1-2.4,1.7-3.2
            c0.7-0.8,1.5-1.3,2.3-1.3c0.8,0,1.5,0.3,2.2,0.8c0.6,0.6,1.1,1.2,1.4,2c0.3,0.7,0.5,1.5,0.6,2.3C31.8,14.1,31.7,14.7,31.4,15.2z
             M28.2,10.6c-0.2,0.1-0.5,0.5-0.8,1.3c-0.3,0.8-0.5,1.7-0.8,2.8c0.4,0,0.7,0,1.1-0.1c0.4-0.1,0.6-0.3,0.8-0.5
            c0.1-0.2,0.2-0.5,0.3-0.9c0-0.4,0-0.8,0-1.2c-0.1-0.4-0.1-0.7-0.3-1C28.5,10.7,28.3,10.6,28.2,10.6z"/>
                    <path class="st0" d="M39,7.8c0,0.3,0,0.5-0.1,0.7c-0.1,0.2-0.3,0.4-0.5,0.6c-0.2,0.2-0.5,0.3-0.8,0.4c-0.3,0.1-0.6,0.2-0.9,0.3
            c-0.6,0.1-1.2,0-1.8-0.2c-0.6-0.2-0.9-0.5-1-1c-0.1-0.5,0.1-1,0.5-1.3c0.4-0.4,1-0.6,1.7-0.7c0.7-0.1,1.3-0.1,1.9,0.2
            C38.6,6.9,38.9,7.3,39,7.8z M34.2,13.5c0-0.8,0.2-1.4,0.6-1.7c0.4-0.3,0.9-0.4,1.4-0.4c0.5,0.1,0.9,0.3,1.3,0.7
            c0.4,0.4,0.5,0.8,0.4,1.4c-0.1,0.6-0.3,1.4-0.4,2.3c-0.1,0.9-0.2,1.8-0.2,2.6c0,0.8,0,1.6,0.1,2.2c0.1,0.6,0.3,0.9,0.6,0.9
            c0.2,0,0.4-0.3,0.7-0.8c0.3-0.5,0.6-1.1,0.8-1.9c0.3-0.7,0.5-1.4,0.8-2.1c0.2-0.7,0.4-1.3,0.5-1.6c0.1-0.3,0.3-0.6,0.5-0.7
            c0.2-0.1,0.5-0.2,0.7-0.1c0.2,0.1,0.4,0.2,0.6,0.4c0.2,0.2,0.2,0.5,0.1,0.8c-0.1,0.2-0.2,0.6-0.3,1.1c-0.2,0.6-0.3,1.2-0.6,1.9
            c-0.2,0.7-0.5,1.4-0.8,2.1c-0.3,0.7-0.7,1.4-1.1,1.9c-0.4,0.6-0.9,1-1.4,1.3c-0.5,0.3-1.1,0.4-1.7,0.2c-0.9-0.3-1.6-0.8-2-1.5
            c-0.4-0.7-0.6-1.6-0.7-2.5c-0.1-1-0.1-2,0-3.2C34.2,15.7,34.2,14.6,34.2,13.5z"/>
                    <path class="st0" d="M42.4,15.8c-0.1,0.3-0.2,0.5-0.4,0.6c-0.2,0.1-0.4,0.2-0.7,0.1c-0.2-0.1-0.4-0.2-0.6-0.4
            c-0.1-0.2-0.1-0.4,0-0.7l0.3-0.9c-0.3-0.3-0.5-0.7-0.5-1.1c0-0.4,0-0.8,0.2-1.1c0.2-0.4,0.4-0.7,0.7-0.9c0.3-0.3,0.7-0.4,1.1-0.4
            c0.7,0,1.1,0.3,1.2,0.8c0.1,0.5,0,1.1-0.3,1.8c0.2,0.1,0.5,0.1,1,0.1c0.5-0.1,0.9-0.1,1.3-0.1c0.4,0,0.7,0.1,1,0.2
            c0.3,0.2,0.3,0.6,0.2,1.2c-0.1,0.6-0.3,1.3-0.4,2.2c-0.2,0.8-0.3,1.7-0.3,2.4c-0.1,0.8-0.1,1.4,0,2c0.1,0.5,0.3,0.8,0.6,0.8
            c0.2,0,0.5-0.3,0.8-0.9c0.3-0.6,0.7-1.3,1-2.1c0.3-0.8,0.6-1.6,0.9-2.4c0.3-0.8,0.4-1.4,0.5-1.8c0.1-0.3,0.2-0.6,0.4-0.7
            c0.2-0.1,0.4-0.2,0.7-0.2c0.2,0,0.4,0.1,0.6,0.3c0.2,0.2,0.2,0.4,0.2,0.8c0,0.2-0.1,0.5-0.3,1.1c-0.1,0.6-0.3,1.2-0.6,1.9
            c-0.2,0.7-0.5,1.4-0.9,2.2c-0.3,0.8-0.7,1.5-1.2,2.1c-0.5,0.6-1,1.2-1.6,1.6c-0.6,0.4-1.2,0.6-1.9,0.5c-0.8,0-1.4-0.4-1.8-1.1
            c-0.4-0.7-0.6-1.5-0.7-2.5c-0.1-1-0.1-2,0.1-3.1c0.2-1.1,0.4-2,0.6-2.8c-0.2,0-0.3,0.1-0.5,0.1c-0.2,0-0.3,0-0.5,0
            C42.5,15.4,42.4,15.6,42.4,15.8z"/>
                    <path class="st0" d="M58.5,2.1c0-0.8,0.2-1.4,0.7-1.7C59.6,0.1,60.1,0,60.6,0c0.5,0,1,0.2,1.3,0.6c0.4,0.3,0.5,0.8,0.4,1.3
            c-0.1,0.4-0.2,1.2-0.3,2.3c-0.1,1.1-0.3,2.4-0.4,3.9c-0.2,1.5-0.3,3-0.4,4.6c-0.1,1.6-0.2,3.1-0.2,4.4c0,1.4,0.1,2.5,0.2,3.3
            c0.1,0.9,0.3,1.3,0.7,1.3c0.3,0,0.6-0.3,0.9-0.9c0.3-0.6,0.6-1.2,0.9-2c0.3-0.8,0.6-1.5,0.8-2.2c0.2-0.7,0.4-1.3,0.4-1.6
            c0.1-0.3,0.3-0.6,0.5-0.7c0.2-0.1,0.4-0.2,0.7-0.1c0.2,0.1,0.4,0.2,0.6,0.4c0.2,0.2,0.2,0.5,0.1,0.8c-0.1,0.3-0.2,1-0.5,2
            c-0.2,1-0.6,2-1.1,3c-0.5,1-1.1,2-1.9,2.8c-0.8,0.8-1.7,1.2-2.7,1.2c-0.8,0-1.4-0.3-1.8-0.9c-0.4-0.6-0.8-1.4-1-2.5
            c-0.3,0.6-0.6,1.2-1.1,1.7c-0.5,0.5-1,0.9-1.7,1.1c-0.7,0.3-1.4,0.3-1.9,0.1c-1-0.2-1.8-0.8-2.3-1.6c-0.6-0.8-1-1.8-1.2-2.9
            c-0.2-1.1-0.2-2.2-0.1-3.4c0.2-1.2,0.5-2.3,1-3.2c0.5-0.9,1.2-1.7,2.1-2.2c0.9-0.5,1.9-0.7,3.2-0.5c0.7,0.1,1.3,0.5,1.8,1.1
            c0.1-1.9,0.3-3.7,0.5-5.4C58.5,4.2,58.5,3,58.5,2.1z M57.4,14.7c-0.1-0.5-0.2-0.9-0.4-1.4c-0.2-0.5-0.5-0.7-0.8-0.8
            c-0.5-0.1-1,0.1-1.4,0.5c-0.4,0.4-0.8,1-1,1.7c-0.3,0.7-0.5,1.5-0.6,2.3c-0.1,0.8-0.2,1.7-0.1,2.4c0.1,0.8,0.2,1.4,0.4,1.9
            c0.2,0.5,0.6,0.8,1,0.9c0.4,0.1,0.9-0.1,1.2-0.6c0.4-0.5,0.7-1.1,1-1.8c0.3-0.7,0.5-1.6,0.6-2.5C57.5,16.4,57.5,15.5,57.4,14.7z"/>
                    <path class="st0" d="M66,2.8c0-0.8,0.2-1.4,0.7-1.7c0.4-0.3,0.9-0.5,1.4-0.4c0.5,0,1,0.2,1.4,0.6C69.8,1.6,70,2,69.9,2.5
            c-0.1,0.4-0.2,1.2-0.3,2.4c-0.2,1.2-0.3,2.6-0.4,4.1c-0.1,1.5-0.3,3.1-0.4,4.8c-0.1,1.7-0.2,3.2-0.2,4.6c0,1.4,0,2.6,0.2,3.5
            c0.1,0.9,0.3,1.3,0.7,1.3c0.2,0,0.5-0.4,0.8-1.1c0.4-0.7,0.7-1.6,1.1-2.5c0.4-0.9,0.7-1.9,1-2.8c0.3-0.9,0.5-1.5,0.6-1.8
            c0.1-0.3,0.2-0.5,0.5-0.6c0.2-0.1,0.5-0.1,0.7-0.1c0.2,0.1,0.4,0.2,0.6,0.4c0.2,0.2,0.2,0.4,0.1,0.7c-0.2,0.7-0.5,1.6-0.8,2.8
            c-0.3,1.2-0.8,2.4-1.3,3.6c-0.5,1.2-1.1,2.2-1.8,3.1c-0.7,0.9-1.6,1.3-2.5,1.3c-0.9,0-1.6-0.5-2.1-1.4c-0.5-1-0.8-2.2-0.9-3.7
            c-0.2-1.5-0.2-3.2-0.2-5c0.1-1.8,0.1-3.6,0.3-5.4c0.1-1.7,0.3-3.3,0.4-4.8C65.9,4.6,66,3.5,66,2.8z"/>
                    <path class="st0" d="M82.5,10.8c-0.4-0.2-0.8-0.3-1.3-0.3c-0.5,0-0.9,0.1-1.3,0.4c-0.4,0.2-0.6,0.5-0.6,0.9c0,0.3,0,0.7,0,1.1
            c0,0.2,0,0.4-0.1,0.6c-0.1,0.5-0.2,1.1-0.3,1.8c-0.1,0.7-0.3,1.3-0.4,2c-0.2,0.7-0.3,1.3-0.5,1.9c-0.2,0.6-0.4,1-0.6,1.4
            C77.2,21,77,21.1,76.8,21c-0.2-0.1-0.3-0.5-0.3-1.2c0-0.8,0-1.7,0.1-2.8c0.1-1.1,0.2-2.3,0.3-3.5c0.1-1.3,0.2-2.4,0.3-3.5
            c0-0.4-0.2-0.7-0.6-0.8c-0.4-0.2-0.9-0.3-1.4-0.2c-0.5,0.1-1,0.2-1.4,0.5c-0.4,0.3-0.7,0.7-0.7,1.3c0,0.9,0,1.9-0.1,3
            c0,1-0.1,2-0.1,3c0,1,0,1.9,0.1,2.7c0,0.8,0.1,1.5,0.2,2c0.1,0.5,0.3,1,0.7,1.3c0.3,0.4,0.7,0.7,1.1,0.9c0.4,0.2,0.9,0.3,1.3,0.3
            c0.5,0,0.9-0.2,1.2-0.6c0.6-0.6,1.1-1.4,1.4-2.3c0,0.2,0,0.3,0,0.5c0,0.6-0.1,1.2-0.1,1.8c0,0.2,0,0.4-0.1,0.7
            c-0.1,1.3-0.4,2.7-0.7,4.1c-0.3,1.4-0.7,2.6-1.1,3.5c-0.2,0.3-0.1,0.6,0.3,0.8c0.4,0.2,0.4,0.3,1,0.3c0.6,0,1.1-0.1,1.7-0.3
            c0.6-0.2,0.9-0.7,1.1-1.3c0.4-1.4,0.6-2.6,0.9-4.3c0.2-1.6,0.4-3.2,0.5-5c0.1-1.3,0.1-2.6,0.1-3.9c0.1-1.3,0.1-2.5,0.2-3.6
            c0.1-1.1,0.2-2,0.3-2.7C83.1,11.3,82.9,11,82.5,10.8z"/>
                </g>
            </svg>